<svg width="20" height="20" viewBox="0 0 20 20" fill="none" xmlns="http://www.w3.org/2000/svg">
<path fill-rule="evenodd" clip-rule="evenodd" d="M13.0525 13.0526C13.1686 12.9364 13.3064 12.8442 13.4582 12.7813C13.6099 12.7184 13.7726 12.686 13.9369 12.686C14.1011 12.686 14.2638 12.7184 14.4155 12.7813C14.5673 12.8442 14.7051 12.9364 14.8212 13.0526L19.6337 17.8651C19.8683 18.0995 20.0001 18.4175 20.0002 18.7491C20.0004 19.0807 19.8687 19.3987 19.6344 19.6333C19.4 19.8678 19.082 19.9997 18.7504 19.9998C18.4188 19.9999 18.1008 19.8683 17.8662 19.6339L13.0537 14.8214C12.9375 14.7053 12.8453 14.5674 12.7824 14.4157C12.7195 14.2639 12.6871 14.1013 12.6871 13.937C12.6871 13.7728 12.7195 13.6101 12.7824 13.4583C12.8453 13.3066 12.9375 13.1687 13.0537 13.0526H13.0525Z" fill="white"/>
<path fill-rule="evenodd" clip-rule="evenodd" d="M8.125 15C9.02784 15 9.92184 14.8222 10.7559 14.4767C11.5901 14.1312 12.348 13.6248 12.9864 12.9864C13.6248 12.348 14.1312 11.5901 14.4767 10.7559C14.8222 9.92184 15 9.02784 15 8.125C15 7.22216 14.8222 6.32817 14.4767 5.49405C14.1312 4.65994 13.6248 3.90204 12.9864 3.26364C12.348 2.62524 11.5901 2.11883 10.7559 1.77333C9.92184 1.42783 9.02784 1.25 8.125 1.25C6.30164 1.25 4.55295 1.97433 3.26364 3.26364C1.97433 4.55295 1.25 6.30164 1.25 8.125C1.25 9.94836 1.97433 11.697 3.26364 12.9864C4.55295 14.2757 6.30164 15 8.125 15ZM16.25 8.125C16.25 10.2799 15.394 12.3465 13.8702 13.8702C12.3465 15.394 10.2799 16.25 8.125 16.25C5.97012 16.25 3.90349 15.394 2.37976 13.8702C0.856024 12.3465 0 10.2799 0 8.125C0 5.97012 0.856024 3.90349 2.37976 2.37976C3.90349 0.856024 5.97012 0 8.125 0C10.2799 0 12.3465 0.856024 13.8702 2.37976C15.394 3.90349 16.25 5.97012 16.25 8.125Z" fill="white"/>
</svg>
