<svg width="36" height="36" viewBox="0 0 36 36" fill="none" xmlns="http://www.w3.org/2000/svg">
<path fill-rule="evenodd" clip-rule="evenodd" d="M31.5 36C32.6935 36 33.8381 35.5259 34.682 34.682C35.5259 33.8381 36 32.6935 36 31.5V4.5C36 3.30653 35.5259 2.16193 34.682 1.31802C33.8381 0.474106 32.6935 0 31.5 0L4.5 0C3.30653 0 2.16193 0.474106 1.31802 1.31802C0.474106 2.16193 0 3.30653 0 4.5L0 31.5C0 32.6935 0.474106 33.8381 1.31802 34.682C2.16193 35.5259 3.30653 36 4.5 36L31.5 36ZM18.7965 12.0465C19.0077 11.8353 19.1264 11.5487 19.1264 11.25C19.1264 10.9513 19.0077 10.6647 18.7965 10.4535C18.5853 10.2423 18.2987 10.1236 18 10.1236C17.7013 10.1236 17.4147 10.2423 17.2035 10.4535L10.4535 17.2035C10.3487 17.308 10.2656 17.4321 10.2089 17.5688C10.1522 17.7055 10.123 17.852 10.123 18C10.123 18.148 10.1522 18.2945 10.2089 18.4312C10.2656 18.5679 10.3487 18.692 10.4535 18.7965L17.2035 25.5465C17.3081 25.6511 17.4323 25.7341 17.5689 25.7907C17.7056 25.8473 17.8521 25.8764 18 25.8764C18.1479 25.8764 18.2944 25.8473 18.4311 25.7907C18.5677 25.7341 18.6919 25.6511 18.7965 25.5465C18.9011 25.4419 18.9841 25.3177 19.0407 25.1811C19.0973 25.0444 19.1264 24.8979 19.1264 24.75C19.1264 24.6021 19.0973 24.4556 19.0407 24.3189C18.9841 24.1823 18.9011 24.0581 18.7965 23.9535L13.9657 19.125L24.75 19.125C25.0484 19.125 25.3345 19.0065 25.5455 18.7955C25.7565 18.5845 25.875 18.2984 25.875 18C25.875 17.7016 25.7565 17.4155 25.5455 17.2045C25.3345 16.9935 25.0484 16.875 24.75 16.875L13.9657 16.875L18.7965 12.0465Z" fill="#B08E44"/>
</svg>
