<svg width="36" height="36" viewBox="0 0 36 36" fill="none" xmlns="http://www.w3.org/2000/svg">
<path fill-rule="evenodd" clip-rule="evenodd" d="M4.5 0C3.30653 0 2.16193 0.474106 1.31802 1.31802C0.474106 2.16193 0 3.30653 0 4.5L0 31.5C0 32.6935 0.474106 33.8381 1.31802 34.682C2.16193 35.5259 3.30653 36 4.5 36H31.5C32.6935 36 33.8381 35.5259 34.682 34.682C35.5259 33.8381 36 32.6935 36 31.5V4.5C36 3.30653 35.5259 2.16193 34.682 1.31802C33.8381 0.474106 32.6935 0 31.5 0L4.5 0ZM17.2035 23.9535C16.9923 24.1647 16.8736 24.4513 16.8736 24.75C16.8736 25.0487 16.9923 25.3353 17.2035 25.5465C17.4147 25.7577 17.7013 25.8764 18 25.8764C18.2987 25.8764 18.5853 25.7577 18.7965 25.5465L25.5465 18.7965C25.6513 18.692 25.7344 18.5679 25.7911 18.4312C25.8478 18.2945 25.877 18.148 25.877 18C25.877 17.852 25.8478 17.7055 25.7911 17.5688C25.7344 17.4321 25.6513 17.308 25.5465 17.2035L18.7965 10.4535C18.6919 10.3489 18.5677 10.2659 18.4311 10.2093C18.2944 10.1527 18.1479 10.1236 18 10.1236C17.8521 10.1236 17.7056 10.1527 17.5689 10.2093C17.4323 10.2659 17.3081 10.3489 17.2035 10.4535C17.0989 10.5581 17.0159 10.6823 16.9593 10.8189C16.9027 10.9556 16.8736 11.1021 16.8736 11.25C16.8736 11.3979 16.9027 11.5444 16.9593 11.6811C17.0159 11.8177 17.0989 11.9419 17.2035 12.0465L22.0343 16.875H11.25C10.9516 16.875 10.6655 16.9935 10.4545 17.2045C10.2435 17.4155 10.125 17.7016 10.125 18C10.125 18.2984 10.2435 18.5845 10.4545 18.7955C10.6655 19.0065 10.9516 19.125 11.25 19.125H22.0343L17.2035 23.9535Z" fill="#B08E44"/>
</svg>
