<svg width="16" height="16" viewBox="0 0 16 16" fill="none" xmlns="http://www.w3.org/2000/svg">
<path d="M3.35 13.85C3.32716 13.9478 3.32675 14.0495 3.3488 14.1474C3.37085 14.2454 3.41478 14.3371 3.47732 14.4157C3.53985 14.4942 3.61936 14.5576 3.70988 14.6011C3.8004 14.6446 3.89958 14.667 4 14.6667C4.13169 14.6667 4.26043 14.6277 4.37 14.5547L8 12.1347L11.63 14.5547C11.7436 14.6301 11.8775 14.6689 12.0138 14.6659C12.15 14.6629 12.2821 14.6183 12.3923 14.538C12.5024 14.4577 12.5853 14.3455 12.6298 14.2167C12.6744 14.0879 12.6784 13.9485 12.6413 13.8173L11.422 9.55067L14.446 6.82934C14.5429 6.74213 14.612 6.62845 14.6449 6.50235C14.6779 6.37625 14.6731 6.24326 14.6313 6.11983C14.5894 5.99641 14.5123 5.88796 14.4095 5.80789C14.3066 5.72782 14.1826 5.67965 14.0527 5.66934L10.252 5.36667L8.60733 1.72601C8.55495 1.60875 8.46976 1.50916 8.36203 1.43925C8.2543 1.36934 8.12864 1.3321 8.00022 1.33203C7.87179 1.33196 7.74609 1.36906 7.63828 1.43885C7.53048 1.50864 7.44517 1.60814 7.39267 1.72534L5.748 5.36667L1.94733 5.66867C1.81963 5.67879 1.69756 5.72548 1.5957 5.80316C1.49385 5.88084 1.41653 5.98622 1.37299 6.10669C1.32946 6.22717 1.32156 6.35763 1.35023 6.48248C1.3789 6.60732 1.44293 6.72126 1.53466 6.81067L4.344 9.54867L3.35 13.85ZM8 3.61934L9.36133 6.63334L9.75333 6.66467H9.754L12.402 6.87467L10.2213 8.83734L10.2207 8.83867L9.912 9.116L10.026 9.514V9.516L10.8613 12.4393L8 10.532V3.61934Z" fill="#FFC805"/>
</svg>
