<svg width="140" height="140" viewBox="0 0 140 140" fill="none" xmlns="http://www.w3.org/2000/svg">
<path d="M117.167 74.416C117.586 54.4716 101.702 37.9054 81.7627 37.4835C61.8196 37.0623 45.2502 52.9439 44.8283 72.8858C44.8221 73.2215 44.8539 73.5317 44.857 73.8681H44.8539C44.8539 73.9692 44.8664 74.0703 44.8664 74.1782C44.8795 75.1986 44.9219 76.2252 45.023 77.2269C45.0705 77.7598 45.1591 78.2853 45.2309 78.8114C45.3145 79.4005 45.3863 79.984 45.5005 80.5545C45.5385 80.7604 45.5541 80.9664 45.5941 81.1661C45.6097 81.1661 45.6259 81.1661 45.6459 81.1661C46.0709 83.1625 46.6251 85.1077 47.3652 86.9719C47.3428 86.9719 47.3159 86.9719 47.2941 86.9719C48.3095 89.5705 49.6344 92.0138 51.1921 94.2799C51.2439 94.2799 51.2919 94.2799 51.3475 94.2799C54.8068 99.2332 59.4668 103.283 64.9287 106.002C64.7896 106.002 64.6466 106.002 64.5075 106.002C68.8523 108.239 73.7008 109.621 78.8538 109.925C78.8607 109.861 78.8538 109.78 78.8538 109.713C79.3163 109.741 79.7669 109.802 80.2355 109.814C84.5773 109.9 88.7349 109.19 92.6267 107.859V108.075C95.7577 107.01 98.7046 105.54 101.386 103.694V103.466C110.683 97.1094 116.907 86.525 117.167 74.416ZM80.4184 100.735C67.6628 100.469 57.1558 91.3673 54.5459 79.4205C54.4616 79.0148 54.3624 78.6154 54.2969 78.2098C54.2257 77.7729 54.1764 77.3292 54.1246 76.8917C54.0217 75.9475 53.9362 74.997 53.9324 74.0203C53.9293 73.7033 53.8975 73.3994 53.9043 73.0761C53.9299 71.8148 54.0722 70.5785 54.2676 69.3616C54.28 69.3616 54.2913 69.3616 54.3037 69.3616C54.7381 66.7835 55.5301 64.334 56.6366 62.0586C56.6016 62.0586 56.5617 62.0586 56.5274 62.0586C60.9689 52.7192 70.571 46.3305 81.5598 46.5633C85.5215 46.6475 89.2541 47.603 92.6136 49.205V49.4203C95.9792 51.0286 98.9517 53.3102 101.379 56.0886V55.8739C105.661 60.7842 108.221 67.2129 108.075 74.2225C107.761 89.1587 95.3514 101.055 80.4184 100.735ZM140 128.632L131.833 136.46L104.636 108.088L112.8 100.26L140 128.632ZM41.4102 38.7941C35.1151 38.7941 28.8194 38.7941 22.5212 38.7941C17.9816 38.7941 17.9816 31.4892 22.5212 31.4892C28.8194 31.4892 35.1151 31.4892 41.4102 31.4892C45.9529 31.4892 45.9529 38.7941 41.4102 38.7941ZM22.5212 50.6036C17.9816 50.6036 17.9816 43.2987 22.5212 43.2987C28.8194 43.2987 35.1151 43.2987 41.4102 43.2987C45.9498 43.2987 45.9498 50.6036 41.4102 50.6036C35.1151 50.6036 28.8225 50.6036 22.5212 50.6036ZM101.385 61.5524V86.125C99.2369 89.6623 96.2133 92.5967 92.6229 94.6312V53.0625C96.232 55.0876 99.2457 58.0289 101.385 61.5524ZM92.6229 111.509C95.7252 110.54 98.6534 109.155 101.385 107.485V135.195H0V3.53979H82.5478L101.385 21.8066V40.1746C98.6278 38.4995 95.6934 37.1621 92.6229 36.2148V26.2158H78.0319V12.3038H8.76396V126.429H92.6223V111.509H92.6229ZM75.4875 94.2799C74.3087 94.2799 71.9003 94.2799 68.7219 94.2799C65.6651 92.4388 63.0527 89.9381 61.0925 86.9719C67.9324 86.9719 73.4849 86.9719 75.4907 86.9719C80.0252 86.975 80.0252 94.2799 75.4875 94.2799ZM21.5339 86.975C24.2705 86.975 33.6255 86.975 43.8442 86.975C44.7397 89.5231 45.8911 91.9695 47.3066 94.283C35.806 94.283 24.5782 94.283 21.5339 94.283C16.9975 94.2799 16.9975 86.975 21.5339 86.975ZM75.4875 81.1723C73.2246 81.1723 66.4016 81.1723 58.3141 81.1723C57.5677 78.8657 57.162 76.4124 57.162 73.8643C65.7488 73.8643 73.1104 73.8643 75.4838 73.8643C80.0252 73.8643 80.0252 81.1723 75.4875 81.1723ZM21.5339 73.8643C24.0689 73.8643 32.2818 73.8643 41.6018 73.8643C41.5987 76.3394 41.8128 78.7864 42.2609 81.1723C32.6712 81.1723 24.1257 81.1723 21.5339 81.1723C16.9975 81.1723 16.9975 73.8643 21.5339 73.8643ZM75.4875 69.3678C73.1491 69.3678 65.9965 69.3678 57.6014 69.3678C58.1069 66.7579 59.0324 64.2953 60.3205 62.0611C67.5112 62.0611 73.4087 62.0611 75.4875 62.0611C80.0252 62.0611 80.0252 69.3678 75.4875 69.3678ZM21.5339 62.0611C24.2312 62.0611 33.369 62.0611 43.4229 62.0611C42.6734 64.4139 42.1348 66.854 41.8434 69.3678C32.4216 69.3678 24.092 69.3678 21.5345 69.3678C16.9975 69.3678 16.9975 62.0611 21.5339 62.0611ZM56.5979 113.316C52.0583 113.316 52.0583 106.015 56.5979 106.015C57.1333 106.015 57.6688 106.015 58.2043 106.015C63.6774 109.919 70.0312 112.328 76.7731 113.044C76.3962 113.196 75.9749 113.317 75.4894 113.317C69.1887 113.316 62.8967 113.316 56.5979 113.316Z" fill="#D1D1D1"/>
</svg>
