<svg width="170" height="170" viewBox="0 0 170 170" fill="none" xmlns="http://www.w3.org/2000/svg">
<g filter="url(#filter0_ii)">
<circle cx="85" cy="85" r="85" fill="white"/>
</g>
<path d="M85 88.75C87.0711 88.75 88.75 87.0711 88.75 85C88.75 82.9289 87.0711 81.25 85 81.25C82.9289 81.25 81.25 82.9289 81.25 85C81.25 87.0711 82.9289 88.75 85 88.75Z" fill="#B08E44"/>
<path d="M100 88.75C102.071 88.75 103.75 87.0711 103.75 85C103.75 82.9289 102.071 81.25 100 81.25C97.9289 81.25 96.25 82.9289 96.25 85C96.25 87.0711 97.9289 88.75 100 88.75Z" fill="#B08E44"/>
<path d="M70 88.75C72.0711 88.75 73.75 87.0711 73.75 85C73.75 82.9289 72.0711 81.25 70 81.25C67.9289 81.25 66.25 82.9289 66.25 85C66.25 87.0711 67.9289 88.75 70 88.75Z" fill="#B08E44"/>
<path d="M111.512 58.4879C105.36 52.2948 97.2386 48.4425 88.5498 47.5951C79.861 46.7477 71.1488 48.9584 63.9152 53.8459C56.6816 58.7335 51.3799 65.9917 48.9241 74.3692C46.4683 82.7467 47.0124 91.7186 50.4625 99.7379C50.8221 100.483 50.9401 101.322 50.8 102.138L47.5 118C47.3728 118.609 47.3988 119.239 47.5755 119.834C47.7523 120.43 48.0742 120.973 48.5125 121.413C48.8718 121.77 49.2995 122.05 49.77 122.237C50.2405 122.424 50.7439 122.513 51.25 122.5H52L68.05 119.275C68.8657 119.177 69.6929 119.294 70.45 119.613C78.4694 123.063 87.4412 123.607 95.8187 121.151C104.196 118.696 111.454 113.394 116.342 106.16C121.23 98.9266 123.44 90.2144 122.593 81.5256C121.745 72.8368 117.893 64.7159 111.7 58.5629L111.512 58.4879ZM114.625 89.8379C113.892 94.3154 112.153 98.5682 109.538 102.276C106.924 105.984 103.503 109.051 99.5318 111.246C95.5609 113.441 91.144 114.707 86.6133 114.948C82.0827 115.189 77.5563 114.399 73.375 112.638C71.892 112.007 70.299 111.676 68.6875 111.663C67.9835 111.668 67.2812 111.731 66.5875 111.85L56.0125 113.988L58.15 103.413C58.5757 101.123 58.3013 98.7574 57.3625 96.6254C55.6015 92.4441 54.8118 87.9178 55.0528 83.3871C55.2939 78.8565 56.5595 74.4395 58.7543 70.4686C60.9491 66.4978 64.016 63.0764 67.7241 60.4621C71.4322 57.8478 75.6851 56.1086 80.1625 55.3754C84.8623 54.6041 89.6781 54.9628 94.2118 56.4219C98.7454 57.881 102.867 60.3985 106.234 63.7662C109.602 67.1339 112.119 71.255 113.579 75.7887C115.038 80.3223 115.396 85.1382 114.625 89.8379Z" fill="#B08E44"/>
<defs>
<filter id="filter0_ii" x="-5" y="-5" width="180" height="180" filterUnits="userSpaceOnUse" color-interpolation-filters="sRGB">
<feFlood flood-opacity="0" result="BackgroundImageFix"/>
<feBlend mode="normal" in="SourceGraphic" in2="BackgroundImageFix" result="shape"/>
<feColorMatrix in="SourceAlpha" type="matrix" values="0 0 0 0 0 0 0 0 0 0 0 0 0 0 0 0 0 0 127 0" result="hardAlpha"/>
<feOffset dx="5" dy="5"/>
<feGaussianBlur stdDeviation="10"/>
<feComposite in2="hardAlpha" operator="arithmetic" k2="-1" k3="1"/>
<feColorMatrix type="matrix" values="0 0 0 0 0 0 0 0 0 0 0 0 0 0 0 0 0 0 0.5 0"/>
<feBlend mode="normal" in2="shape" result="effect1_innerShadow"/>
<feColorMatrix in="SourceAlpha" type="matrix" values="0 0 0 0 0 0 0 0 0 0 0 0 0 0 0 0 0 0 127 0" result="hardAlpha"/>
<feOffset dx="-5" dy="-5"/>
<feGaussianBlur stdDeviation="10"/>
<feComposite in2="hardAlpha" operator="arithmetic" k2="-1" k3="1"/>
<feColorMatrix type="matrix" values="0 0 0 0 0 0 0 0 0 0 0 0 0 0 0 0 0 0 0.5 0"/>
<feBlend mode="normal" in2="effect1_innerShadow" result="effect2_innerShadow"/>
</filter>
</defs>
</svg>
