<svg width="342" height="342" viewBox="0 0 342 342" fill="none" xmlns="http://www.w3.org/2000/svg">
<path d="M249.923 328.425V341.579H92.0769V328.425C92.0769 321.177 97.983 315.271 105.231 315.271H131.709C132.407 298.855 143.061 285.149 157.846 279.9V125.672C150.914 121.291 146.271 113.61 146.271 104.796H157.846H184.154H195.729C195.729 113.61 191.086 121.291 184.154 125.672V279.887C198.939 285.136 209.593 298.842 210.291 315.258H236.769C244.017 315.271 249.923 321.177 249.923 328.425ZM342 210.027C332.358 237.177 306.682 256.763 276.231 256.763C245.78 256.763 220.103 237.164 210.462 210.027H225.641L270.075 92.2608C271.995 87.1308 280.453 87.1308 282.387 92.2608L326.82 210.027H342ZM312.759 210.027L276.231 113.228L239.703 210.04H312.759V210.027ZM65.7692 78.6334C71.7279 78.6334 76.5817 74.6478 78.2654 69.2416C82.6193 67.5842 87.0785 65.348 91.656 63.033C101.719 57.9556 113.123 52.181 124.962 52.181C136.326 52.181 143.43 57.4294 147.494 61.9017C147.336 63.033 147.152 64.1642 147.152 65.3349C147.152 78.5019 157.833 89.1828 171 89.1828C184.167 89.1828 194.848 78.5019 194.848 65.3349C194.848 64.1642 194.664 63.0461 194.506 61.9149C198.557 57.4557 205.66 52.181 217.038 52.181C228.877 52.181 240.281 57.9424 250.331 63.0198C254.922 65.3349 259.381 67.571 263.735 69.2284C265.418 74.6347 270.272 78.6203 276.231 78.6203C283.571 78.6203 289.516 72.6747 289.516 65.3349C289.516 57.995 283.571 52.0495 276.231 52.0495C272.442 52.0495 269.062 53.6806 266.642 56.2324C263.393 54.8644 259.881 53.115 256.263 51.2866C244.898 45.5383 232.021 39.0272 217.038 39.0272C203.937 39.0272 194.808 44.0125 188.613 49.3793C185.838 46.3144 182.286 44.0257 178.248 42.7234C183.154 40.0927 186.6 35.081 186.6 29.1487C186.6 20.5329 171 0.420654 171 0.420654C171 0.420654 155.4 20.5329 155.4 29.1487C155.4 35.0942 158.846 40.0927 163.752 42.7234C159.714 44.0125 156.162 46.3144 153.387 49.3793C147.192 44.0125 138.063 39.0272 124.962 39.0272C109.979 39.0272 97.0885 45.5383 85.7236 51.2866C82.1063 53.1281 78.6074 54.8776 75.3584 56.2324C72.9381 53.6937 69.5575 52.0495 65.7692 52.0495C58.4294 52.0495 52.4838 57.995 52.4838 65.3349C52.4838 72.6747 58.4294 78.6334 65.7692 78.6334ZM65.7692 256.776C35.3181 256.776 9.64177 237.177 0 210.04H15.1795L59.6132 92.274C61.5337 87.144 69.9916 87.144 71.9252 92.274L116.359 210.04H131.538C121.897 237.177 96.2204 256.776 65.7692 256.776ZM102.297 210.027L65.7692 113.228L29.241 210.04H102.297V210.027Z" fill="#B08E44" fill-opacity="0.2"/>
</svg>
