<svg width="144" height="144" viewBox="0 0 144 144" fill="none" xmlns="http://www.w3.org/2000/svg">
<path d="M113.805 89.203C110.857 86.1333 107.301 84.4922 103.533 84.4922C99.7946 84.4922 96.2083 86.103 93.1387 89.1726L83.5348 98.7461C82.7446 98.3206 81.9544 97.9255 81.1946 97.5304C80.1004 96.9834 79.0671 96.4667 78.1857 95.9196C69.1896 90.2059 61.0141 82.7598 53.173 73.1255C49.3739 68.3235 46.821 64.2814 44.9671 60.1784C47.4592 57.899 49.769 55.5284 52.0181 53.249C52.869 52.398 53.72 51.5166 54.571 50.6657C60.9534 44.2833 60.9534 36.0166 54.571 29.6343L46.2739 21.3372C45.3318 20.395 44.3592 19.4225 43.4475 18.4499C41.6239 16.5656 39.7092 14.6205 37.7337 12.797C34.7857 9.87935 31.2602 8.32935 27.5523 8.32935C23.8445 8.32935 20.2582 9.87935 17.219 12.797C17.1886 12.8274 17.1886 12.8274 17.1582 12.8578L6.82487 23.2823C2.93467 27.1725 0.71604 31.9137 0.229765 37.4147C-0.499648 46.2892 2.11408 54.5559 4.11996 59.9657C9.0435 73.2471 16.3984 85.5559 27.37 98.7461C40.6818 114.641 56.6984 127.193 74.9945 136.037C81.9847 139.35 91.3152 143.271 101.74 143.939C102.378 143.97 103.047 144 103.654 144C110.675 144 116.571 141.478 121.191 136.463C121.221 136.402 121.282 136.372 121.312 136.311C122.893 134.396 124.716 132.664 126.631 130.81C127.938 129.564 129.275 128.257 130.582 126.889C133.591 123.759 135.171 120.112 135.171 116.374C135.171 112.605 133.56 108.988 130.491 105.949L113.805 89.203ZM124.686 121.206C124.655 121.206 124.655 121.236 124.686 121.206C123.5 122.482 122.285 123.637 120.978 124.914C119.002 126.798 116.997 128.774 115.112 130.992C112.043 134.275 108.426 135.825 103.685 135.825C103.229 135.825 102.743 135.825 102.287 135.794C93.2603 135.217 84.872 131.691 78.5808 128.682C61.3788 120.355 46.2739 108.532 33.722 93.549C23.3582 81.0578 16.4288 69.5088 11.8396 57.1088C9.01311 49.5412 7.97977 43.6451 8.43565 38.0833C8.73958 34.5274 10.1072 31.5794 12.6298 29.0568L22.9935 18.6931C24.4827 17.295 26.0631 16.5352 27.6131 16.5352C29.5278 16.5352 31.0778 17.6901 32.0504 18.6627C32.0808 18.6931 32.1112 18.7235 32.1416 18.7539C33.9955 20.4862 35.7582 22.2794 37.6122 24.1941C38.5543 25.1666 39.5269 26.1392 40.4994 27.1421L48.7965 35.4392C52.0181 38.6608 52.0181 41.6392 48.7965 44.8608C47.9151 45.7421 47.0641 46.6235 46.1828 47.4745C43.6298 50.0882 41.1984 52.5196 38.5543 54.8902C38.4935 54.951 38.4327 54.9814 38.4024 55.0421C35.7886 57.6559 36.2749 60.2088 36.822 61.9412C36.8524 62.0323 36.8827 62.1235 36.9131 62.2147C39.071 67.4421 42.1102 72.3657 46.7298 78.2314L46.7602 78.2618C55.1484 88.5951 63.9926 96.649 73.7485 102.819C74.9946 103.609 76.271 104.247 77.4867 104.855C78.5808 105.402 79.6142 105.919 80.4955 106.466C80.6171 106.527 80.7387 106.618 80.8602 106.678C81.8936 107.195 82.8661 107.438 83.8691 107.438C86.3916 107.438 87.972 105.858 88.4887 105.341L98.8828 94.9471C99.9161 93.9137 101.557 92.6677 103.472 92.6677C105.356 92.6677 106.906 93.853 107.848 94.8863C107.879 94.9167 107.879 94.9167 107.909 94.9471L124.655 111.693C127.786 114.793 127.786 117.984 124.686 121.206Z" fill="#CECAC3"/>
<path d="M77.821 34.2538C85.7838 35.591 93.0171 39.3596 98.7916 45.1342C104.566 50.9087 108.304 58.142 109.672 66.1048C110.006 68.1106 111.739 69.5087 113.714 69.5087C113.957 69.5087 114.17 69.4783 114.413 69.4479C116.662 69.0832 118.151 66.9557 117.787 64.7067C116.146 55.0724 111.587 46.2891 104.627 39.3293C97.6671 32.3694 88.8838 27.8106 79.2494 26.1694C77.0004 25.8047 74.9034 27.2939 74.5083 29.5126C74.1132 31.7312 75.572 33.889 77.821 34.2538Z" fill="#CECAC3"/>
<path d="M143.833 63.5214C141.128 47.6567 133.651 33.2204 122.163 21.7322C110.675 10.2439 96.2387 2.76746 80.374 0.0625516C78.1553 -0.332547 76.0583 1.18706 75.6632 3.40569C75.2985 5.65471 76.7877 7.75177 79.0367 8.14687C93.1995 10.5479 106.116 17.2645 116.389 27.5067C126.661 37.7792 133.348 50.6959 135.749 64.8587C136.083 66.8646 137.815 68.2626 139.791 68.2626C140.034 68.2626 140.247 68.2322 140.49 68.2018C142.708 67.8675 144.228 65.7401 143.833 63.5214Z" fill="#CECAC3"/>
</svg>
