<svg width="80" height="16" viewBox="0 0 80 16" fill="none" xmlns="http://www.w3.org/2000/svg">
<path d="M67.35 13.85C67.3272 13.9478 67.3267 14.0495 67.3488 14.1474C67.3708 14.2454 67.4148 14.3371 67.4773 14.4157C67.5399 14.4942 67.6194 14.5576 67.7099 14.6011C67.8004 14.6446 67.8996 14.667 68 14.6667C68.1317 14.6667 68.2604 14.6277 68.37 14.5547L72 12.1347L75.63 14.5547C75.7436 14.6301 75.8775 14.6689 76.0138 14.6659C76.15 14.6629 76.2821 14.6183 76.3923 14.538C76.5024 14.4577 76.5853 14.3456 76.6298 14.2167C76.6744 14.0879 76.6784 13.9485 76.6413 13.8173L75.422 9.55068L78.446 6.82934C78.5428 6.74214 78.612 6.62845 78.6449 6.50235C78.6779 6.37625 78.6731 6.24326 78.6313 6.11984C78.5894 5.99641 78.5123 5.88796 78.4095 5.80789C78.3066 5.72783 78.1826 5.67966 78.0527 5.66934L74.252 5.36668L72.6073 1.72601C72.555 1.60875 72.4698 1.50916 72.362 1.43925C72.2543 1.36934 72.1286 1.3321 72.0002 1.33203C71.8718 1.33196 71.7461 1.36906 71.6383 1.43885C71.5305 1.50864 71.4452 1.60814 71.3927 1.72534L69.748 5.36668L65.9473 5.66868C65.8196 5.67879 65.6976 5.72548 65.5957 5.80316C65.4938 5.88084 65.4165 5.98622 65.373 6.1067C65.3295 6.22717 65.3216 6.35763 65.3502 6.48248C65.3789 6.60733 65.4429 6.72127 65.5347 6.81068L68.344 9.54868L67.35 13.85ZM72 3.61934L73.3613 6.63334L73.7533 6.66468H73.754L76.402 6.87468L74.2213 8.83734L74.2207 8.83868L73.912 9.11601L74.026 9.51401V9.51601L74.8613 12.4393L72 10.532V3.61934Z" fill="#FFC805"/>
<path d="M49.8109 5.51739L53.7781 4.94083L55.5516 1.34551C55.6 1.24708 55.6797 1.16739 55.7781 1.11895C56.025 0.997076 56.325 1.09864 56.4484 1.34551L58.2219 4.94083L62.1891 5.51739C62.2984 5.53301 62.3984 5.58458 62.475 5.6627C62.5676 5.75784 62.6186 5.88583 62.6168 6.01855C62.615 6.15127 62.5607 6.27786 62.4656 6.37051L59.5953 9.16895L60.2734 13.1205C60.2893 13.2124 60.2792 13.307 60.2441 13.3934C60.209 13.4798 60.1504 13.5547 60.0749 13.6095C59.9994 13.6644 59.9101 13.6969 59.817 13.7036C59.724 13.7102 59.6309 13.6906 59.5484 13.6471L56 11.7815L52.4516 13.6471C52.3547 13.6986 52.2422 13.7158 52.1344 13.6971C51.8625 13.6502 51.6797 13.3924 51.7266 13.1205L52.4047 9.16895L49.5344 6.37051C49.4563 6.29395 49.4047 6.19395 49.3891 6.08458C49.3469 5.81114 49.5375 5.55801 49.8109 5.51739Z" fill="#FFC805"/>
<path d="M17.8109 5.51739L21.7781 4.94083L23.5516 1.34551C23.6 1.24708 23.6797 1.16739 23.7781 1.11895C24.025 0.997076 24.325 1.09864 24.4484 1.34551L26.2219 4.94083L30.1891 5.51739C30.2984 5.53301 30.3984 5.58458 30.475 5.6627C30.5676 5.75784 30.6186 5.88583 30.6168 6.01855C30.615 6.15127 30.5607 6.27786 30.4656 6.37051L27.5953 9.16895L28.2734 13.1205C28.2893 13.2124 28.2792 13.307 28.2441 13.3934C28.209 13.4798 28.1504 13.5547 28.0749 13.6095C27.9994 13.6644 27.9101 13.6969 27.817 13.7036C27.724 13.7102 27.6309 13.6906 27.5484 13.6471L24 11.7815L20.4516 13.6471C20.3547 13.6986 20.2422 13.7158 20.1344 13.6971C19.8625 13.6502 19.6797 13.3924 19.7266 13.1205L20.4047 9.16895L17.5344 6.37051C17.4563 6.29395 17.4047 6.19395 17.3891 6.08458C17.3469 5.81114 17.5375 5.55801 17.8109 5.51739Z" fill="#FFC805"/>
<path d="M33.8109 5.51739L37.7781 4.94083L39.5516 1.34551C39.6 1.24708 39.6797 1.16739 39.7781 1.11895C40.025 0.997076 40.325 1.09864 40.4484 1.34551L42.2219 4.94083L46.1891 5.51739C46.2984 5.53301 46.3984 5.58458 46.475 5.6627C46.5676 5.75784 46.6186 5.88583 46.6168 6.01855C46.615 6.15127 46.5607 6.27786 46.4656 6.37051L43.5953 9.16895L44.2734 13.1205C44.2893 13.2124 44.2792 13.307 44.2441 13.3934C44.209 13.4798 44.1504 13.5547 44.0749 13.6095C43.9994 13.6644 43.9101 13.6969 43.817 13.7036C43.724 13.7102 43.6309 13.6906 43.5484 13.6471L40 11.7815L36.4516 13.6471C36.3547 13.6986 36.2422 13.7158 36.1344 13.6971C35.8625 13.6502 35.6797 13.3924 35.7266 13.1205L36.4047 9.16895L33.5344 6.37051C33.4563 6.29395 33.4047 6.19395 33.3891 6.08458C33.3469 5.81114 33.5375 5.55801 33.8109 5.51739Z" fill="#FFC805"/>
<path d="M1.81094 5.51739L5.77813 4.94083L7.55156 1.34551C7.6 1.24708 7.67969 1.16739 7.77813 1.11895C8.025 0.997076 8.325 1.09864 8.44844 1.34551L10.2219 4.94083L14.1891 5.51739C14.2984 5.53301 14.3984 5.58458 14.475 5.6627C14.5676 5.75784 14.6186 5.88583 14.6168 6.01855C14.615 6.15127 14.5607 6.27786 14.4656 6.37051L11.5953 9.16895L12.2734 13.1205C12.2893 13.2124 12.2792 13.307 12.2441 13.3934C12.209 13.4798 12.1504 13.5547 12.0749 13.6095C11.9994 13.6644 11.9101 13.6969 11.817 13.7036C11.724 13.7102 11.6309 13.6906 11.5484 13.6471L8 11.7815L4.45156 13.6471C4.35469 13.6986 4.24219 13.7158 4.13438 13.6971C3.8625 13.6502 3.67969 13.3924 3.72656 13.1205L4.40469 9.16895L1.53438 6.37051C1.45625 6.29395 1.40469 6.19395 1.38906 6.08458C1.34688 5.81114 1.5375 5.55801 1.81094 5.51739Z" fill="#FFC805"/>
</svg>
